G04 DipTrace 2.1.0.5*
%INBottom Silk Screen.ger*%
%MOIN*%
%ADD10C,0.0098*%
%ADD11C,0.006*%
%ADD12C,0.003*%
%ADD13C,0.015*%
%ADD14C,0.04*%
%ADD15C,0.06*%
%ADD16C,0.03*%
%ADD17C,0.02*%
%ADD18C,0.0331*%
%ADD19C,0.025*%
%ADD20C,0.007*%
%ADD21C,0.08*%
%ADD22C,0.1*%
%ADD23C,0.09*%
%ADD24C,0.039*%
%ADD25C,0.013*%
%ADD26R,0.0433X0.0394*%
%ADD27R,0.0394X0.0433*%
%ADD28R,0.0787X0.1772*%
%ADD29R,0.0591X0.1378*%
%ADD30R,0.1772X0.0787*%
%ADD31R,0.0598X0.0661*%
%ADD32C,0.05*%
%ADD33R,0.05X0.05*%
%ADD34R,0.0661X0.0598*%
%ADD35C,0.15*%
%ADD36R,0.15X0.15*%
%ADD37R,0.079X0.079*%
%ADD38C,0.08*%
%ADD39R,0.08X0.08*%
%ADD40R,0.1024X0.2874*%
%ADD41C,0.079*%
%ADD42C,0.079*%
%ADD43R,0.032X0.032*%
%ADD44R,0.087X0.087*%
%ADD45C,0.087*%
%ADD46R,0.0512X0.0787*%
%ADD47R,0.0787X0.0787*%
%ADD48R,0.0512X0.0591*%
%ADD49R,0.0591X0.0512*%
%ADD50R,0.0866X0.0866*%
%ADD51C,0.0866*%
%ADD52O,0.0335X0.0184*%
%ADD53R,0.0591X0.0157*%
%ADD54R,0.0157X0.0591*%
%ADD55O,0.0224X0.026*%
%ADD56R,0.0236X0.0394*%
%ADD57O,0.0391X0.0337*%
%ADD58R,0.0354X0.0394*%
%ADD59C,0.0191*%
%ADD60C,0.17*%
%ADD61C,0.12*%
%ADD62C,0.028*%
%ADD63C,0.063*%
%ADD64C,0.035*%
%ADD65C,0.054*%
%ADD66C,0.0543*%
%ADD67C,0.008*%
%ADD68C,0.048*%
%ADD69C,0.032*%
%ADD70R,0.0434X0.0474*%
%ADD71R,0.0274X0.0314*%
%ADD72R,0.0316X0.0474*%
%ADD73R,0.0156X0.0314*%
%ADD74R,0.0237X0.0671*%
%ADD75R,0.0077X0.0511*%
%ADD76R,0.0671X0.0237*%
%ADD77R,0.0511X0.0077*%
%ADD78C,0.0946*%
%ADD79C,0.0786*%
%ADD80R,0.0946X0.0946*%
%ADD81C,0.088*%
%ADD82C,0.072*%
%ADD83R,0.0671X0.0592*%
%ADD84R,0.0511X0.0432*%
%ADD85R,0.0592X0.0671*%
%ADD86R,0.0432X0.0511*%
%ADD87R,0.0707X0.0707*%
%ADD88R,0.0592X0.0867*%
%ADD89R,0.0432X0.0707*%
%ADD90C,0.095*%
%ADD91R,0.095X0.095*%
%ADD92R,0.04X0.04*%
%ADD93R,0.024X0.024*%
%ADD94C,0.108*%
%ADD95C,0.092*%
%ADD96C,0.087*%
%ADD97C,0.071*%
%ADD98C,0.071*%
%ADD99R,0.1104X0.2954*%
%ADD100R,0.0944X0.2794*%
%ADD101R,0.088X0.088*%
%ADD102R,0.072X0.072*%
%ADD103C,0.088*%
%ADD104C,0.072*%
%ADD105R,0.071X0.071*%
%ADD106R,0.158X0.158*%
%ADD107R,0.142X0.142*%
%ADD108C,0.158*%
%ADD109C,0.142*%
%ADD110R,0.0741X0.0678*%
%ADD111R,0.0581X0.0518*%
%ADD112R,0.058X0.058*%
%ADD113R,0.042X0.042*%
%ADD114C,0.058*%
%ADD115C,0.042*%
%ADD116R,0.0678X0.0741*%
%ADD117R,0.0518X0.0581*%
%ADD118R,0.1852X0.0867*%
%ADD119R,0.1692X0.0707*%
%ADD120R,0.0671X0.1458*%
%ADD121R,0.0511X0.1298*%
%ADD122R,0.0867X0.1852*%
%ADD123R,0.0707X0.1692*%
%ADD124R,0.0474X0.0513*%
%ADD125R,0.0314X0.0353*%
%ADD126R,0.0513X0.0474*%
%ADD127R,0.0353X0.0314*%
%ADD128C,0.0077*%
%FSLAX44Y44*%
%SFA1B1*%
%OFA0B0*%
G04*
G70*
G90*
G75*
G01*
%LNBotSilk*%
%LPD*%
X26706Y14013D2*
D10*
X27504Y14722D1*
X23381Y19049D2*
X27504D1*
X23363Y14669D2*
X24303Y14013D1*
X27504Y19049D2*
Y14687D1*
X23363Y19031D2*
Y14642D1*
X24303Y14013D2*
X26715D1*
X17089Y11955D2*
X18782D1*
X16521Y15670D2*
X19368D1*
Y15661D2*
Y12593D1*
X16504Y15661D2*
Y12593D1*
X18782Y11955D2*
X19368Y12549D1*
X17089Y11937D2*
X16512Y12593D1*
X22805Y16124D2*
Y16438D1*
X21789Y13330D2*
X21474D1*
X27305Y13408D2*
X26990D1*
X28013Y15794D2*
X28722Y14996D1*
X33049Y19119D2*
Y14996D1*
X28669Y19137D2*
X28013Y18197D1*
X33049Y14996D2*
X28687D1*
X33031Y19137D2*
X28642D1*
X28013Y18197D2*
Y15785D1*
X17568Y2411D2*
X17883D1*
X22154Y2318D2*
X22469D1*
X32807Y11541D2*
X35643D1*
Y12728D1*
X32807D1*
Y11541D1*
G36*
X32454Y11668D2*
X32853D1*
Y12626D1*
X32454D1*
Y11668D1*
G37*
X32483Y12719D2*
D10*
X29647D1*
Y11532D1*
X32483D1*
Y12719D1*
G36*
X32836Y12592D2*
X32437D1*
Y11634D1*
X32836D1*
Y12592D1*
G37*
X35693Y14219D2*
D10*
X32857D1*
Y13032D1*
X35693D1*
Y14219D1*
G36*
X36046Y14092D2*
X35647D1*
Y13134D1*
X36046D1*
Y14092D1*
G37*
X29804Y13045D2*
D10*
X32640D1*
Y14232D1*
X29804D1*
Y13045D1*
G36*
X29451Y13171D2*
X29850D1*
Y14129D1*
X29451D1*
Y13171D1*
G37*
X20822Y12699D2*
D10*
X19635D1*
Y15535D1*
X20822D1*
Y12699D1*
G36*
X20696Y12346D2*
X19738D1*
Y12745D1*
X20696D1*
Y12346D1*
G37*
X7797Y13009D2*
D10*
X10081D1*
Y9535D1*
X7797D1*
Y13009D1*
X16433Y5334D2*
X19738D1*
Y6572D1*
X16433D1*
Y5334D1*
X17900Y11698D2*
X21237D1*
Y8330D1*
X17900D1*
Y11698D1*
X25810Y13280D2*
Y13000D1*
X26210Y13280D2*
X25810D1*
Y12440D2*
Y12160D1*
X26210D2*
X25810D1*
X26310Y12813D2*
Y12627D1*
X22500Y9500D2*
X26500D1*
Y11500D1*
X22500D1*
Y9500D1*
X29000D2*
X33000D1*
Y11500D1*
X29000D1*
Y9500D1*
X26484Y7913D2*
X22579D1*
X26232Y6276D2*
X22799D1*
X26484Y7913D2*
Y7693D1*
X22579Y7913D2*
Y7693D1*
X26484D2*
X22579D1*
X26484D2*
X26232Y6276D1*
X22579Y7661D2*
X22799Y6276D1*
X32984Y7913D2*
X29079D1*
X32732Y6276D2*
X29299D1*
X32984Y7913D2*
Y7693D1*
X29079Y7913D2*
Y7693D1*
X32984D2*
X29079D1*
X32984D2*
X32732Y6276D1*
X29079Y7661D2*
X29299Y6276D1*
X23343Y12742D2*
X22359D1*
D55*
X22051Y13220D3*
X22258Y9022D2*
D17*
X33269D1*
Y8527D1*
X22258D1*
Y9022D1*
X25487Y19662D2*
D128*
X25510Y19709D1*
D2*
X25558Y19757D1*
D2*
X25606Y19781D1*
D2*
X25702D1*
D2*
X25750Y19757D1*
D2*
X25797Y19709D1*
D2*
X25822Y19662D1*
D2*
X25845Y19590D1*
D2*
Y19470D1*
D2*
X25822Y19399D1*
D2*
X25797Y19351D1*
D2*
X25750Y19303D1*
D2*
X25702Y19279D1*
D2*
X25606D1*
D2*
X25558Y19303D1*
D2*
X25510Y19351D1*
D2*
X25487Y19399D1*
X25045Y19709D2*
X25069Y19757D1*
D2*
X25141Y19781D1*
D2*
X25189D1*
D2*
X25260Y19757D1*
D2*
X25308Y19685D1*
D2*
X25332Y19566D1*
D2*
Y19446D1*
D2*
X25308Y19351D1*
D2*
X25260Y19303D1*
D2*
X25189Y19279D1*
D2*
X25165D1*
D2*
X25093Y19303D1*
D2*
X25045Y19351D1*
D2*
X25022Y19423D1*
D2*
Y19446D1*
D2*
X25045Y19518D1*
D2*
X25093Y19566D1*
D2*
X25165Y19589D1*
D2*
X25189D1*
D2*
X25260Y19566D1*
D2*
X25308Y19518D1*
D2*
X25332Y19446D1*
X18001Y16283D2*
X18025Y16330D1*
D2*
X18073Y16378D1*
D2*
X18120Y16402D1*
D2*
X18216D1*
D2*
X18264Y16378D1*
D2*
X18311Y16330D1*
D2*
X18336Y16283D1*
D2*
X18360Y16211D1*
D2*
Y16091D1*
D2*
X18336Y16020D1*
D2*
X18311Y15971D1*
D2*
X18264Y15924D1*
D2*
X18216Y15900D1*
D2*
X18120D1*
D2*
X18073Y15924D1*
D2*
X18025Y15971D1*
D2*
X18001Y16020D1*
X17751Y15900D2*
X17512Y16401D1*
D2*
X17846D1*
X22259Y17091D2*
X22283Y17138D1*
D2*
X22331Y17186D1*
D2*
X22379Y17210D1*
D2*
X22474D1*
D2*
X22522Y17186D1*
D2*
X22570Y17138D1*
D2*
X22594Y17091D1*
D2*
X22618Y17019D1*
D2*
Y16899D1*
D2*
X22594Y16828D1*
D2*
X22570Y16780D1*
D2*
X22522Y16732D1*
D2*
X22474Y16708D1*
D2*
X22379D1*
D2*
X22331Y16732D1*
D2*
X22283Y16780D1*
D2*
X22259Y16828D1*
X21986Y17210D2*
X22057Y17186D1*
D2*
X22081Y17138D1*
D2*
Y17090D1*
D2*
X22057Y17043D1*
D2*
X22009Y17018D1*
D2*
X21914Y16995D1*
D2*
X21842Y16971D1*
D2*
X21794Y16923D1*
D2*
X21771Y16875D1*
D2*
Y16803D1*
D2*
X21794Y16756D1*
D2*
X21818Y16731D1*
D2*
X21890Y16708D1*
D2*
X21986D1*
D2*
X22057Y16731D1*
D2*
X22081Y16756D1*
D2*
X22105Y16803D1*
D2*
Y16875D1*
D2*
X22081Y16923D1*
D2*
X22033Y16971D1*
D2*
X21962Y16995D1*
D2*
X21866Y17018D1*
D2*
X21818Y17043D1*
D2*
X21794Y17090D1*
D2*
Y17138D1*
D2*
X21818Y17186D1*
D2*
X21890Y17210D1*
D2*
X21986D1*
X21517Y11511D2*
X21470Y11534D1*
D2*
X21422Y11582D1*
D2*
X21398Y11630D1*
D2*
Y11726D1*
D2*
X21422Y11774D1*
D2*
X21470Y11821D1*
D2*
X21517Y11845D1*
D2*
X21589Y11869D1*
D2*
X21709D1*
D2*
X21780Y11845D1*
D2*
X21828Y11821D1*
D2*
X21876Y11774D1*
D2*
X21900Y11726D1*
D2*
Y11630D1*
D2*
X21876Y11582D1*
D2*
X21828Y11534D1*
D2*
X21780Y11511D1*
X21494Y11356D2*
X21470Y11308D1*
D2*
X21398Y11236D1*
D2*
X21900D1*
X21470Y10795D2*
X21422Y10819D1*
D2*
X21398Y10891D1*
D2*
Y10938D1*
D2*
X21422Y11010D1*
D2*
X21494Y11058D1*
D2*
X21613Y11082D1*
D2*
X21733D1*
D2*
X21828Y11058D1*
D2*
X21877Y11010D1*
D2*
X21900Y10938D1*
D2*
Y10914D1*
D2*
X21877Y10843D1*
D2*
X21828Y10795D1*
D2*
X21757Y10771D1*
D2*
X21733D1*
D2*
X21661Y10795D1*
D2*
X21613Y10843D1*
D2*
X21590Y10914D1*
D2*
Y10938D1*
D2*
X21613Y11010D1*
D2*
X21661Y11058D1*
D2*
X21733Y11082D1*
X27633Y13000D2*
X27586Y13024D1*
D2*
X27538Y13072D1*
D2*
X27514Y13120D1*
D2*
Y13215D1*
D2*
X27538Y13263D1*
D2*
X27586Y13311D1*
D2*
X27633Y13335D1*
D2*
X27705Y13359D1*
D2*
X27825D1*
D2*
X27896Y13335D1*
D2*
X27944Y13311D1*
D2*
X27992Y13263D1*
D2*
X28016Y13215D1*
D2*
Y13120D1*
D2*
X27992Y13072D1*
D2*
X27944Y13024D1*
D2*
X27896Y13000D1*
X27610Y12846D2*
X27586Y12798D1*
D2*
X27514Y12726D1*
D2*
X28016D1*
Y12476D2*
X27514Y12237D1*
D2*
Y12572D1*
X30733Y19750D2*
X30757Y19797D1*
D2*
X30805Y19845D1*
D2*
X30852Y19869D1*
D2*
X30948D1*
D2*
X30996Y19845D1*
D2*
X31044Y19797D1*
D2*
X31068Y19750D1*
D2*
X31092Y19678D1*
D2*
Y19558D1*
D2*
X31068Y19487D1*
D2*
X31044Y19439D1*
D2*
X30996Y19391D1*
D2*
X30948Y19367D1*
D2*
X30852D1*
D2*
X30805Y19391D1*
D2*
X30757Y19439D1*
D2*
X30733Y19487D1*
X30579Y19773D2*
X30531Y19797D1*
D2*
X30459Y19869D1*
D2*
Y19367D1*
X30185Y19869D2*
X30256Y19845D1*
D2*
X30281Y19797D1*
D2*
Y19749D1*
D2*
X30256Y19702D1*
D2*
X30209Y19677D1*
D2*
X30113Y19654D1*
D2*
X30041Y19630D1*
D2*
X29994Y19582D1*
D2*
X29970Y19534D1*
D2*
Y19462D1*
D2*
X29994Y19415D1*
D2*
X30017Y19391D1*
D2*
X30089Y19367D1*
D2*
X30185D1*
D2*
X30256Y19391D1*
D2*
X30281Y19415D1*
D2*
X30304Y19462D1*
D2*
Y19534D1*
D2*
X30281Y19582D1*
D2*
X30232Y19630D1*
D2*
X30161Y19654D1*
D2*
X30066Y19677D1*
D2*
X30017Y19702D1*
D2*
X29994Y19749D1*
D2*
Y19797D1*
D2*
X30017Y19845D1*
D2*
X30089Y19869D1*
D2*
X30185D1*
X18211Y3331D2*
X18163Y3355D1*
D2*
X18115Y3403D1*
D2*
X18092Y3450D1*
D2*
Y3546D1*
D2*
X18115Y3594D1*
D2*
X18163Y3642D1*
D2*
X18211Y3666D1*
D2*
X18283Y3690D1*
D2*
X18403D1*
D2*
X18474Y3666D1*
D2*
X18522Y3642D1*
D2*
X18570Y3594D1*
D2*
X18594Y3546D1*
D2*
Y3450D1*
D2*
X18570Y3403D1*
D2*
X18522Y3355D1*
D2*
X18474Y3331D1*
X18212Y3152D2*
X18188D1*
D2*
X18140Y3128D1*
D2*
X18116Y3105D1*
D2*
X18092Y3057D1*
D2*
Y2961D1*
D2*
X18116Y2913D1*
D2*
X18140Y2890D1*
D2*
X18188Y2865D1*
D2*
X18235D1*
D2*
X18283Y2890D1*
D2*
X18355Y2937D1*
D2*
X18594Y3177D1*
D2*
Y2842D1*
X18092Y2639D2*
Y2377D1*
D2*
X18283Y2520D1*
D2*
Y2448D1*
D2*
X18307Y2400D1*
D2*
X18331Y2377D1*
D2*
X18403Y2352D1*
D2*
X18450D1*
D2*
X18522Y2377D1*
D2*
X18570Y2424D1*
D2*
X18594Y2496D1*
D2*
Y2568D1*
D2*
X18570Y2639D1*
D2*
X18546Y2663D1*
D2*
X18498Y2687D1*
X21502Y3250D2*
X21454Y3273D1*
D2*
X21406Y3322D1*
D2*
X21383Y3369D1*
D2*
Y3465D1*
D2*
X21406Y3513D1*
D2*
X21454Y3560D1*
D2*
X21502Y3585D1*
D2*
X21574Y3608D1*
D2*
X21694D1*
D2*
X21765Y3585D1*
D2*
X21813Y3560D1*
D2*
X21861Y3513D1*
D2*
X21885Y3465D1*
D2*
Y3369D1*
D2*
X21861Y3322D1*
D2*
X21813Y3273D1*
D2*
X21765Y3250D1*
X21503Y3071D2*
X21479D1*
D2*
X21431Y3047D1*
D2*
X21407Y3023D1*
D2*
X21383Y2975D1*
D2*
Y2880D1*
D2*
X21407Y2832D1*
D2*
X21431Y2808D1*
D2*
X21479Y2784D1*
D2*
X21526D1*
D2*
X21574Y2808D1*
D2*
X21646Y2856D1*
D2*
X21885Y3095D1*
D2*
Y2760D1*
Y2367D2*
X21383D1*
D2*
X21718Y2606D1*
D2*
Y2247D1*
X35812Y12439D2*
X36315D1*
D2*
Y12272D1*
D2*
X36290Y12200D1*
D2*
X36243Y12152D1*
D2*
X36195Y12128D1*
D2*
X36123Y12105D1*
D2*
X36004D1*
D2*
X35932Y12128D1*
D2*
X35884Y12152D1*
D2*
X35836Y12200D1*
D2*
X35812Y12272D1*
D2*
Y12439D1*
X35908Y11950D2*
X35884Y11902D1*
D2*
X35813Y11830D1*
D2*
X36315D1*
X28915Y12549D2*
X29417D1*
D2*
Y12382D1*
D2*
X29393Y12310D1*
D2*
X29346Y12262D1*
D2*
X29298Y12238D1*
D2*
X29226Y12214D1*
D2*
X29106D1*
D2*
X29034Y12238D1*
D2*
X28987Y12262D1*
D2*
X28939Y12310D1*
D2*
X28915Y12382D1*
D2*
Y12549D1*
X29417Y11821D2*
X28916D1*
D2*
X29250Y12060D1*
D2*
Y11701D1*
X36216Y14037D2*
X36718D1*
D2*
Y13870D1*
D2*
X36694Y13798D1*
D2*
X36646Y13750D1*
D2*
X36598Y13726D1*
D2*
X36527Y13702D1*
D2*
X36407D1*
D2*
X36335Y13726D1*
D2*
X36287Y13750D1*
D2*
X36239Y13798D1*
D2*
X36216Y13870D1*
D2*
Y14037D1*
Y13261D2*
Y13500D1*
D2*
X36431Y13524D1*
D2*
X36407Y13500D1*
D2*
X36383Y13428D1*
D2*
Y13357D1*
D2*
X36407Y13285D1*
D2*
X36455Y13237D1*
D2*
X36527Y13213D1*
D2*
X36574D1*
D2*
X36646Y13237D1*
D2*
X36694Y13285D1*
D2*
X36718Y13357D1*
D2*
Y13428D1*
D2*
X36694Y13500D1*
D2*
X36670Y13524D1*
D2*
X36622Y13548D1*
X31445Y14964D2*
Y14462D1*
D2*
X31278D1*
D2*
X31206Y14486D1*
D2*
X31158Y14533D1*
D2*
X31134Y14582D1*
D2*
X31111Y14653D1*
D2*
Y14773D1*
D2*
X31134Y14845D1*
D2*
X31158Y14892D1*
D2*
X31206Y14940D1*
D2*
X31278Y14964D1*
D2*
X31445D1*
X30669Y14892D2*
X30693Y14940D1*
D2*
X30765Y14963D1*
D2*
X30812D1*
D2*
X30884Y14940D1*
D2*
X30932Y14868D1*
D2*
X30956Y14748D1*
D2*
Y14629D1*
D2*
X30932Y14533D1*
D2*
X30884Y14485D1*
D2*
X30812Y14462D1*
D2*
X30789D1*
D2*
X30717Y14485D1*
D2*
X30669Y14533D1*
D2*
X30646Y14605D1*
D2*
Y14629D1*
D2*
X30669Y14701D1*
D2*
X30717Y14748D1*
D2*
X30789Y14772D1*
D2*
X30812D1*
D2*
X30884Y14748D1*
D2*
X30932Y14701D1*
D2*
X30956Y14629D1*
X20641Y16267D2*
Y15765D1*
D2*
X20474D1*
D2*
X20402Y15789D1*
D2*
X20354Y15837D1*
D2*
X20330Y15885D1*
D2*
X20306Y15956D1*
D2*
Y16076D1*
D2*
X20330Y16148D1*
D2*
X20354Y16195D1*
D2*
X20402Y16243D1*
D2*
X20474Y16267D1*
D2*
X20641D1*
X20056Y15765D2*
X19817Y16267D1*
D2*
X20152D1*
X9064Y13742D2*
Y13359D1*
D2*
X9087Y13287D1*
D2*
X9112Y13264D1*
D2*
X9159Y13239D1*
D2*
X9207D1*
D2*
X9255Y13264D1*
D2*
X9279Y13287D1*
D2*
X9303Y13359D1*
D2*
Y13407D1*
X8622Y13741D2*
X8861D1*
D2*
X8885Y13526D1*
D2*
X8861Y13550D1*
D2*
X8789Y13574D1*
D2*
X8718D1*
D2*
X8646Y13550D1*
D2*
X8598Y13502D1*
D2*
X8574Y13430D1*
D2*
Y13383D1*
D2*
X8598Y13311D1*
D2*
X8646Y13263D1*
D2*
X8718Y13239D1*
D2*
X8789D1*
D2*
X8861Y13263D1*
D2*
X8885Y13287D1*
D2*
X8909Y13335D1*
X18198Y7305D2*
Y6922D1*
D2*
X18222Y6850D1*
D2*
X18247Y6827D1*
D2*
X18294Y6802D1*
D2*
X18342D1*
D2*
X18390Y6827D1*
D2*
X18413Y6850D1*
D2*
X18438Y6922D1*
D2*
Y6970D1*
X17757Y7233D2*
X17781Y7280D1*
D2*
X17853Y7304D1*
D2*
X17900D1*
D2*
X17972Y7280D1*
D2*
X18020Y7208D1*
D2*
X18044Y7089D1*
D2*
Y6970D1*
D2*
X18020Y6874D1*
D2*
X17972Y6826D1*
D2*
X17900Y6802D1*
D2*
X17877D1*
D2*
X17805Y6826D1*
D2*
X17757Y6874D1*
D2*
X17733Y6946D1*
D2*
Y6970D1*
D2*
X17757Y7042D1*
D2*
X17805Y7089D1*
D2*
X17877Y7113D1*
D2*
X17900D1*
D2*
X17972Y7089D1*
D2*
X18020Y7042D1*
D2*
X18044Y6970D1*
X19849Y12430D2*
Y11927D1*
D2*
X19562D1*
X19408Y12334D2*
X19360Y12358D1*
D2*
X19288Y12429D1*
D2*
Y11927D1*
X26353Y14012D2*
X26400Y13989D1*
D2*
X26448Y13941D1*
D2*
X26472Y13893D1*
D2*
X26497Y13821D1*
D2*
Y13702D1*
D2*
X26472Y13630D1*
D2*
X26448Y13582D1*
D2*
X26400Y13534D1*
D2*
X26353Y13511D1*
D2*
X26257D1*
D2*
X26209Y13534D1*
D2*
X26162Y13582D1*
D2*
X26138Y13630D1*
D2*
X26113Y13702D1*
D2*
Y13821D1*
D2*
X26138Y13893D1*
D2*
X26162Y13941D1*
D2*
X26209Y13989D1*
D2*
X26257Y14012D1*
D2*
X26353D1*
X26281Y13606D2*
X26138Y13462D1*
X25935Y13892D2*
Y13916D1*
D2*
X25911Y13964D1*
D2*
X25887Y13988D1*
D2*
X25839Y14012D1*
D2*
X25744D1*
D2*
X25696Y13988D1*
D2*
X25672Y13964D1*
D2*
X25648Y13916D1*
D2*
Y13869D1*
D2*
X25672Y13821D1*
D2*
X25720Y13749D1*
D2*
X25959Y13510D1*
D2*
X25624D1*
X24792Y12232D2*
X24840Y12209D1*
D2*
X24888Y12161D1*
D2*
X24912Y12113D1*
D2*
X24936Y12041D1*
D2*
Y11922D1*
D2*
X24912Y11850D1*
D2*
X24888Y11802D1*
D2*
X24840Y11754D1*
D2*
X24792Y11730D1*
D2*
X24697D1*
D2*
X24649Y11754D1*
D2*
X24601Y11802D1*
D2*
X24577Y11850D1*
D2*
X24553Y11922D1*
D2*
Y12041D1*
D2*
X24577Y12113D1*
D2*
X24601Y12161D1*
D2*
X24649Y12209D1*
D2*
X24697Y12232D1*
D2*
X24792D1*
X24721Y11826D2*
X24577Y11682D1*
X24351Y12232D2*
X24088D1*
D2*
X24231Y12040D1*
D2*
X24159D1*
D2*
X24112Y12017D1*
D2*
X24088Y11993D1*
D2*
X24064Y11921D1*
D2*
Y11874D1*
D2*
X24088Y11802D1*
D2*
X24136Y11754D1*
D2*
X24208Y11730D1*
D2*
X24279D1*
D2*
X24351Y11754D1*
D2*
X24374Y11778D1*
D2*
X24399Y11825D1*
X33170Y10804D2*
X33193Y10852D1*
D2*
X33241Y10900D1*
D2*
X33289Y10924D1*
D2*
X33361Y10948D1*
D2*
X33480D1*
D2*
X33552Y10924D1*
D2*
X33600Y10900D1*
D2*
X33648Y10852D1*
D2*
X33671Y10804D1*
D2*
Y10709D1*
D2*
X33648Y10661D1*
D2*
X33600Y10613D1*
D2*
X33552Y10589D1*
D2*
X33480Y10565D1*
D2*
X33361D1*
D2*
X33289Y10589D1*
D2*
X33241Y10613D1*
D2*
X33193Y10661D1*
D2*
X33170Y10709D1*
D2*
Y10804D1*
X33576Y10733D2*
X33720Y10589D1*
X33672Y10171D2*
X33170D1*
D2*
X33505Y10411D1*
D2*
Y10052D1*
X23810Y15230D2*
X23595D1*
D2*
X23523Y15254D1*
D2*
X23499Y15278D1*
D2*
X23475Y15325D1*
D2*
Y15373D1*
D2*
X23499Y15421D1*
D2*
X23523Y15445D1*
D2*
X23595Y15469D1*
D2*
X23810D1*
D2*
Y14967D1*
X23643Y15230D2*
X23475Y14967D1*
X23034Y15397D2*
X23058Y15445D1*
D2*
X23129Y15469D1*
D2*
X23177D1*
D2*
X23249Y15445D1*
D2*
X23297Y15373D1*
D2*
X23321Y15254D1*
D2*
Y15134D1*
D2*
X23297Y15039D1*
D2*
X23249Y14990D1*
D2*
X23177Y14967D1*
D2*
X23153D1*
D2*
X23082Y14990D1*
D2*
X23034Y15039D1*
D2*
X23010Y15110D1*
D2*
Y15134D1*
D2*
X23034Y15206D1*
D2*
X23082Y15254D1*
D2*
X23153Y15277D1*
D2*
X23177D1*
D2*
X23249Y15254D1*
D2*
X23297Y15206D1*
D2*
X23321Y15134D1*
X23812Y14520D2*
X23597D1*
D2*
X23525Y14544D1*
D2*
X23501Y14568D1*
D2*
X23477Y14615D1*
D2*
Y14663D1*
D2*
X23501Y14711D1*
D2*
X23525Y14735D1*
D2*
X23597Y14759D1*
D2*
X23812D1*
D2*
Y14257D1*
X23645Y14520D2*
X23477Y14257D1*
X23227D2*
X22988Y14759D1*
D2*
X23323D1*
X28616Y12217D2*
Y12002D1*
D2*
X28591Y11930D1*
D2*
X28568Y11906D1*
D2*
X28520Y11882D1*
D2*
X28472D1*
D2*
X28425Y11906D1*
D2*
X28400Y11930D1*
D2*
X28376Y12002D1*
D2*
Y12217D1*
D2*
X28879D1*
X28616Y12050D2*
X28879Y11882D1*
X28473Y11728D2*
X28448Y11680D1*
D2*
X28377Y11608D1*
D2*
X28879D1*
X28448Y11167D2*
X28401Y11190D1*
D2*
X28377Y11262D1*
D2*
Y11310D1*
D2*
X28401Y11382D1*
D2*
X28473Y11430D1*
D2*
X28592Y11453D1*
D2*
X28711D1*
D2*
X28807Y11430D1*
D2*
X28855Y11382D1*
D2*
X28879Y11310D1*
D2*
Y11286D1*
D2*
X28855Y11215D1*
D2*
X28807Y11167D1*
D2*
X28735Y11143D1*
D2*
X28711D1*
D2*
X28640Y11167D1*
D2*
X28592Y11215D1*
D2*
X28568Y11286D1*
D2*
Y11310D1*
D2*
X28592Y11382D1*
D2*
X28640Y11430D1*
D2*
X28711Y11453D1*
X23863Y13633D2*
Y13418D1*
D2*
X23839Y13347D1*
D2*
X23815Y13322D1*
D2*
X23768Y13299D1*
D2*
X23720D1*
D2*
X23672Y13322D1*
D2*
X23648Y13347D1*
D2*
X23624Y13418D1*
D2*
Y13633D1*
D2*
X24126D1*
X23863Y13466D2*
X24126Y13299D1*
X23720Y13144D2*
X23696Y13096D1*
D2*
X23625Y13024D1*
D2*
X24126D1*
Y12774D2*
X23625Y12535D1*
D2*
Y12870D1*
X16300Y10339D2*
Y10124D1*
D2*
X16276Y10052D1*
D2*
X16252Y10028D1*
D2*
X16205Y10004D1*
D2*
X16157D1*
D2*
X16109Y10028D1*
D2*
X16085Y10052D1*
D2*
X16061Y10124D1*
D2*
Y10339D1*
D2*
X16563D1*
X16300Y10171D2*
X16563Y10004D1*
X16181Y9825D2*
X16157D1*
D2*
X16109Y9801D1*
D2*
X16085Y9777D1*
D2*
X16061Y9729D1*
D2*
Y9634D1*
D2*
X16085Y9586D1*
D2*
X16109Y9563D1*
D2*
X16157Y9538D1*
D2*
X16205D1*
D2*
X16253Y9563D1*
D2*
X16324Y9610D1*
D2*
X16563Y9849D1*
D2*
Y9514D1*
Y9121D2*
X16061D1*
D2*
X16396Y9360D1*
D2*
Y9001D1*
X34508Y15497D2*
X34293D1*
D2*
X34221Y15522D1*
D2*
X34197Y15545D1*
D2*
X34173Y15593D1*
D2*
Y15641D1*
D2*
X34197Y15689D1*
D2*
X34221Y15713D1*
D2*
X34293Y15737D1*
D2*
X34508D1*
D2*
Y15234D1*
X34341Y15497D2*
X34173Y15234D1*
X33995Y15617D2*
Y15640D1*
D2*
X33971Y15689D1*
D2*
X33947Y15712D1*
D2*
X33899Y15736D1*
D2*
X33803D1*
D2*
X33756Y15712D1*
D2*
X33732Y15689D1*
D2*
X33708Y15640D1*
D2*
Y15593D1*
D2*
X33732Y15545D1*
D2*
X33780Y15474D1*
D2*
X34019Y15234D1*
D2*
X33684D1*
X33218Y15569D2*
X33243Y15497D1*
D2*
X33290Y15449D1*
D2*
X33362Y15425D1*
D2*
X33386D1*
D2*
X33458Y15449D1*
D2*
X33505Y15497D1*
D2*
X33530Y15569D1*
D2*
Y15593D1*
D2*
X33505Y15665D1*
D2*
X33458Y15712D1*
D2*
X33386Y15736D1*
D2*
X33362D1*
D2*
X33290Y15712D1*
D2*
X33243Y15665D1*
D2*
X33218Y15569D1*
D2*
Y15449D1*
D2*
X33243Y15330D1*
D2*
X33290Y15258D1*
D2*
X33362Y15234D1*
D2*
X33410D1*
D2*
X33482Y15258D1*
D2*
X33505Y15306D1*
X12045Y14768D2*
X11830D1*
D2*
X11758Y14793D1*
D2*
X11734Y14816D1*
D2*
X11710Y14864D1*
D2*
Y14912D1*
D2*
X11734Y14960D1*
D2*
X11758Y14984D1*
D2*
X11830Y15008D1*
D2*
X12045D1*
D2*
Y14505D1*
X11877Y14768D2*
X11710Y14505D1*
X11507Y15007D2*
X11245D1*
D2*
X11388Y14816D1*
D2*
X11316D1*
D2*
X11269Y14792D1*
D2*
X11245Y14768D1*
D2*
X11220Y14696D1*
D2*
Y14649D1*
D2*
X11245Y14577D1*
D2*
X11292Y14529D1*
D2*
X11364Y14505D1*
D2*
X11436D1*
D2*
X11507Y14529D1*
D2*
X11531Y14553D1*
D2*
X11555Y14601D1*
X11066Y14911D2*
X11018Y14936D1*
D2*
X10946Y15007D1*
D2*
Y14505D1*
X14111Y13593D2*
X13896D1*
D2*
X13824Y13617D1*
D2*
X13800Y13641D1*
D2*
X13776Y13688D1*
D2*
Y13736D1*
D2*
X13800Y13784D1*
D2*
X13824Y13808D1*
D2*
X13896Y13832D1*
D2*
X14111D1*
D2*
Y13329D1*
X13943Y13593D2*
X13776Y13329D1*
X13573Y13831D2*
X13311D1*
D2*
X13454Y13640D1*
D2*
X13382D1*
D2*
X13335Y13616D1*
D2*
X13311Y13593D1*
D2*
X13287Y13521D1*
D2*
Y13473D1*
D2*
X13311Y13401D1*
D2*
X13358Y13353D1*
D2*
X13430Y13329D1*
D2*
X13502D1*
D2*
X13573Y13353D1*
D2*
X13597Y13378D1*
D2*
X13622Y13425D1*
X13108Y13712D2*
Y13736D1*
D2*
X13084Y13784D1*
D2*
X13060Y13808D1*
D2*
X13012Y13831D1*
D2*
X12917D1*
D2*
X12869Y13808D1*
D2*
X12845Y13784D1*
D2*
X12821Y13736D1*
D2*
Y13688D1*
D2*
X12845Y13640D1*
D2*
X12893Y13569D1*
D2*
X13132Y13329D1*
D2*
X12797D1*
X24669Y8646D2*
Y8143D1*
X24836Y8646D2*
X24501D1*
X24347Y8549D2*
X24299Y8574D1*
D2*
X24227Y8645D1*
D2*
Y8143D1*
X31276Y8646D2*
Y8143D1*
X31444Y8646D2*
X31109D1*
X30930Y8526D2*
Y8549D1*
D2*
X30906Y8598D1*
D2*
X30882Y8621D1*
D2*
X30834Y8645D1*
D2*
X30739D1*
D2*
X30691Y8621D1*
D2*
X30667Y8598D1*
D2*
X30643Y8549D1*
D2*
Y8502D1*
D2*
X30667Y8454D1*
D2*
X30715Y8383D1*
D2*
X30954Y8143D1*
D2*
X30619D1*
X23053Y14105D2*
Y13746D1*
D2*
X23029Y13674D1*
D2*
X22981Y13626D1*
D2*
X22909Y13602D1*
D2*
X22862D1*
D2*
X22790Y13626D1*
D2*
X22742Y13674D1*
D2*
X22718Y13746D1*
D2*
Y14105D1*
X22539Y13985D2*
Y14008D1*
D2*
X22516Y14056D1*
D2*
X22492Y14080D1*
D2*
X22444Y14104D1*
D2*
X22348D1*
D2*
X22301Y14080D1*
D2*
X22277Y14056D1*
D2*
X22252Y14008D1*
D2*
Y13961D1*
D2*
X22277Y13913D1*
D2*
X22324Y13841D1*
D2*
X22564Y13602D1*
D2*
X22229D1*
M02*
