M48
INCH
T01C0.0191
T02C0.028
T03C0.035
T04C0.04
T05C0.05
T06C0.054
T07C0.06
T08C0.063
T09C0.12
T10C0.17
%
T01
X+013198Y+011853
X+014496Y+011391
X+014730Y+010832
X+014473Y+012462
X+014212Y+014082
X+014417Y+014904
X+013099Y+014275
X+012468Y+014442
X+011869Y+014217
X+011687Y+012915
X+011067Y+013173
X+011402Y+010908
X+011851Y+009492
X+011290Y+009130
X+013865Y+009393
X+014822Y+007444
X+015243Y+005507
X+013015Y+000805
X+007436Y+006908
X+008471Y+015181
X+016617Y+010942
X+019320Y+014064
X+019320Y+016266
X+020794Y+016922
X+021270Y+015415
X+021822Y+013682
X+025869Y+012099
X+026452Y+011688
X+025500Y+009500
X+025500Y+009000
X+025500Y+008500
X+025500Y+008000
X+024500Y+008000
X+024500Y+008500
X+024500Y+009000
X+024500Y+009500
X+024500Y+006000
X+024500Y+005500
X+024500Y+005000
X+025000Y+004000
X+026000Y+005500
X+026500Y+005000
X+025500Y+006000
X+028857Y+003935
X+030000Y+006000
X+031000Y+006000
X+032000Y+006000
X+032000Y+005500
X+031227Y+004804
X+031000Y+008000
X+031000Y+008500
X+031000Y+009000
X+031000Y+009500
X+032000Y+009500
X+032000Y+009000
X+032000Y+008500
X+032000Y+008000
X+027116Y+014119
X+020514Y+007986
T02
X+037520Y+009810
X+037520Y+010810
X+037520Y+012810
X+037520Y+013810
T03
X+009412Y+012269
T04
X+009412Y+011269
X+009412Y+010269
X+008412Y+010269
X+008412Y+011269
X+008412Y+012269
X+008329Y+017915
X+009328Y+017914
X+010328Y+017914
X+011328Y+017914
X+012328Y+017914
X+013328Y+017914
X+014328Y+017914
X+015328Y+017914
X+016328Y+017914
X+017328Y+017914
X+018328Y+017914
X+019328Y+017914
X+020328Y+017914
X+021328Y+017914
X+022328Y+017914
X+019108Y+005961
X+018108Y+005961
X+017108Y+005961
X+006970Y+003520
X+006970Y+002520
X+004970Y+002520
X+004970Y+003520
X+007329Y+017915
T05
X+021140Y+001820
X+022860Y+001820
X+022856Y+004181
X+021144Y+004181
X+018860Y+004180
X+017140Y+004180
X+017144Y+001819
X+018856Y+001819
X+036339Y+006454
X+036339Y+008166
X+038700Y+008170
X+038700Y+006450
X+038700Y+015454
X+038700Y+017166
X+036339Y+017170
X+036339Y+015450
T06
X+023500Y+010500
X+024500Y+010500
X+025500Y+010500
X+025500Y+007000
X+024500Y+007000
X+023500Y+007000
X+030000Y+007000
X+031000Y+007000
X+032000Y+007000
X+032000Y+010500
X+031000Y+010500
X+030000Y+010500
T07
X+027750Y+009750
X+027750Y+007750
T08
X+032000Y+003000
X+030000Y+003000
X+028000Y+003000
X+026000Y+003000
X+034000Y+003000
X+036000Y+003000
X+038000Y+003000
X+040000Y+003000
X+042000Y+003000
X+015000Y+003000
X+013000Y+003000
X+011000Y+003000
X+009000Y+003000
T09
X+005159Y+017915
X+005163Y+005710
X+034691Y+005710
X+034689Y+017915
T10
X+002500Y+016000
X+002500Y+008500
X+041500Y+007500
X+041500Y+018500
T00
M30
