G04 DipTrace 2.1.0.5*
%INTop Paste.ger*%
%MOIN*%
%ADD10C,0.0098*%
%ADD11C,0.006*%
%ADD12C,0.003*%
%ADD13C,0.015*%
%ADD14C,0.04*%
%ADD15C,0.06*%
%ADD16C,0.03*%
%ADD17C,0.02*%
%ADD18C,0.0331*%
%ADD19C,0.025*%
%ADD20C,0.007*%
%ADD21C,0.08*%
%ADD22C,0.1*%
%ADD23C,0.09*%
%ADD24C,0.039*%
%ADD25C,0.013*%
%ADD26R,0.0433X0.0394*%
%ADD27R,0.0394X0.0433*%
%ADD28R,0.0787X0.1772*%
%ADD29R,0.0591X0.1378*%
%ADD30R,0.1772X0.0787*%
%ADD31R,0.0598X0.0661*%
%ADD32C,0.05*%
%ADD33R,0.05X0.05*%
%ADD34R,0.0661X0.0598*%
%ADD35C,0.15*%
%ADD36R,0.15X0.15*%
%ADD37R,0.079X0.079*%
%ADD38C,0.08*%
%ADD39R,0.08X0.08*%
%ADD40R,0.1024X0.2874*%
%ADD41C,0.079*%
%ADD42C,0.079*%
%ADD43R,0.032X0.032*%
%ADD44R,0.087X0.087*%
%ADD45C,0.087*%
%ADD46R,0.0512X0.0787*%
%ADD47R,0.0787X0.0787*%
%ADD48R,0.0512X0.0591*%
%ADD49R,0.0591X0.0512*%
%ADD50R,0.0866X0.0866*%
%ADD51C,0.0866*%
%ADD52O,0.0335X0.0184*%
%ADD53R,0.0591X0.0157*%
%ADD54R,0.0157X0.0591*%
%ADD55O,0.0224X0.026*%
%ADD56R,0.0236X0.0394*%
%ADD57O,0.0391X0.0337*%
%ADD58R,0.0354X0.0394*%
%ADD59C,0.0191*%
%ADD60C,0.17*%
%ADD61C,0.12*%
%ADD62C,0.028*%
%ADD63C,0.063*%
%ADD64C,0.035*%
%ADD65C,0.054*%
%ADD66C,0.0543*%
%ADD67C,0.008*%
%ADD68C,0.048*%
%ADD69C,0.032*%
%ADD70R,0.0434X0.0474*%
%ADD71R,0.0274X0.0314*%
%ADD72R,0.0316X0.0474*%
%ADD73R,0.0156X0.0314*%
%ADD74R,0.0237X0.0671*%
%ADD75R,0.0077X0.0511*%
%ADD76R,0.0671X0.0237*%
%ADD77R,0.0511X0.0077*%
%ADD78C,0.0946*%
%ADD79C,0.0786*%
%ADD80R,0.0946X0.0946*%
%ADD81C,0.088*%
%ADD82C,0.072*%
%ADD83R,0.0671X0.0592*%
%ADD84R,0.0511X0.0432*%
%ADD85R,0.0592X0.0671*%
%ADD86R,0.0432X0.0511*%
%ADD87R,0.0707X0.0707*%
%ADD88R,0.0592X0.0867*%
%ADD89R,0.0432X0.0707*%
%ADD90C,0.095*%
%ADD91R,0.095X0.095*%
%ADD92R,0.04X0.04*%
%ADD93R,0.024X0.024*%
%ADD94C,0.108*%
%ADD95C,0.092*%
%ADD96C,0.087*%
%ADD97C,0.071*%
%ADD98C,0.071*%
%ADD99R,0.1104X0.2954*%
%ADD100R,0.0944X0.2794*%
%ADD101R,0.088X0.088*%
%ADD102R,0.072X0.072*%
%ADD103C,0.088*%
%ADD104C,0.072*%
%ADD105R,0.071X0.071*%
%ADD106R,0.158X0.158*%
%ADD107R,0.142X0.142*%
%ADD108C,0.158*%
%ADD109C,0.142*%
%ADD110R,0.0741X0.0678*%
%ADD111R,0.0581X0.0518*%
%ADD112R,0.058X0.058*%
%ADD113R,0.042X0.042*%
%ADD114C,0.058*%
%ADD115C,0.042*%
%ADD116R,0.0678X0.0741*%
%ADD117R,0.0518X0.0581*%
%ADD118R,0.1852X0.0867*%
%ADD119R,0.1692X0.0707*%
%ADD120R,0.0671X0.1458*%
%ADD121R,0.0511X0.1298*%
%ADD122R,0.0867X0.1852*%
%ADD123R,0.0707X0.1692*%
%ADD124R,0.0474X0.0513*%
%ADD125R,0.0314X0.0353*%
%ADD126R,0.0513X0.0474*%
%ADD127R,0.0353X0.0314*%
%ADD128C,0.0077*%
%FSLAX44Y44*%
%SFA1B1*%
%OFA0B0*%
G04*
G70*
G90*
G75*
G01*
%LNTopPaste*%
%LPD*%
D69*
X13198Y11853D3*
X12468Y14442D3*
X11402Y10908D3*
X20794Y16922D3*
X13099Y14275D3*
X27116Y14119D3*
X7436Y6908D3*
X25500Y9500D3*
Y9000D3*
Y8500D3*
Y8000D3*
X24500Y9500D3*
Y9000D3*
X28857Y3935D3*
X24500Y8500D3*
Y8000D3*
X31000Y9500D3*
Y9000D3*
Y8500D3*
Y8000D3*
X32000Y9500D3*
Y9000D3*
Y8500D3*
Y8000D3*
Y6000D3*
X24500D3*
Y5500D3*
Y5000D3*
X32000Y5500D3*
X31000Y6000D3*
X25500D3*
X26000Y5500D3*
X26500Y5000D3*
X31227Y4804D3*
X25000Y4000D3*
X30000Y6000D3*
D127*
X16350Y15689D3*
X17019D3*
X16985Y13090D3*
X16315D3*
D125*
X10520Y13758D3*
Y14427D3*
X11290Y15145D3*
Y15815D3*
D127*
X16495Y12000D3*
X17165D3*
X12165Y6500D3*
X12835D3*
X13665D3*
X14335D3*
X12165Y7125D3*
X12835D3*
D125*
X13511Y15144D3*
Y15813D3*
D127*
X8040Y6500D3*
X8710D3*
X9540D3*
X10210D3*
X8040Y7125D3*
X8710D3*
D125*
X6500Y7915D3*
Y8585D3*
X11000Y7790D3*
Y8460D3*
X40126Y15406D3*
Y14737D3*
X34647Y7873D3*
Y8542D3*
D127*
X6805Y4610D3*
X6135D3*
D93*
X33720Y10233D3*
X34520D3*
X34120Y11103D3*
X21525Y7060D3*
Y6260D3*
X22395Y6660D3*
D127*
X9540Y8750D3*
X10210D3*
X12073Y5168D3*
X12743D3*
X28324Y11224D3*
X27655D3*
D125*
X13500Y5835D3*
Y5165D3*
Y7165D3*
Y7835D3*
X16115Y7205D3*
Y7874D3*
X17425Y7195D3*
Y7864D3*
D127*
X22735Y17000D3*
X23405D3*
D125*
X11625Y7790D3*
Y8460D3*
X8500Y5710D3*
Y5040D3*
X9949Y5690D3*
Y5021D3*
X9500Y7165D3*
Y7835D3*
X7125Y7915D3*
Y8585D3*
X35550Y13803D3*
Y14472D3*
X35530Y10815D3*
Y10145D3*
D89*
X7630Y16291D3*
D87*
X7177Y14716D3*
D89*
X6724Y16291D3*
D127*
X31326Y11775D3*
X30657D3*
X24200Y12078D3*
X23531D3*
D125*
X22430Y10705D3*
Y11375D3*
D127*
X9810Y14443D3*
X9141D3*
D125*
X5006Y13522D3*
Y14191D3*
D86*
X23416Y8227D3*
X22668D3*
D127*
X37198Y4773D3*
X37867D3*
D84*
X33484Y8373D3*
Y9121D3*
D77*
X15500Y10500D3*
Y10815D3*
Y11130D3*
Y11445D3*
Y11760D3*
Y12075D3*
Y12390D3*
Y12705D3*
D75*
X15028Y13177D3*
X14713D3*
X14398D3*
X14083D3*
X13768D3*
X13453D3*
X13138D3*
X12823D3*
D77*
X12350Y12705D3*
Y12390D3*
Y12075D3*
Y11760D3*
Y11445D3*
Y11130D3*
Y10815D3*
Y10500D3*
D75*
X12823Y10028D3*
X13138D3*
X13453D3*
X13768D3*
X14083D3*
X14398D3*
X14713D3*
X15028D3*
D73*
X12251Y7817D3*
X12999D3*
Y8683D3*
X12625D3*
X12251D3*
X12000Y15000D3*
X12748D3*
Y15866D3*
X12374D3*
X12000D3*
X8001Y7942D3*
X8749D3*
Y8808D3*
X8375D3*
X8001D3*
D71*
X16997Y14003D3*
Y14850D3*
X16386D3*
Y14003D3*
M02*
